<?xml version="1.0" encoding="UTF-8"?><svg xmlns="http://www.w3.org/2000/svg" xmlns:xlink="http://www.w3.org/1999/xlink" stroke-dasharray="none" shape-rendering="auto" font-family="'Dialog'" width="1290" text-rendering="auto" fill-opacity="1" contentScriptType="text/ecmascript" color-interpolation="auto" color-rendering="auto" preserveAspectRatio="xMidYMid meet" font-size="12" fill="black" stroke="black" image-rendering="auto" stroke-miterlimit="10" zoomAndPan="magnify" version="1.0" stroke-linecap="square" stroke-linejoin="miter" contentStyleType="text/css" font-style="normal" height="530" stroke-width="1" stroke-dashoffset="0" font-weight="normal" stroke-opacity="1">
<!--Generated by the Batik Graphics2D SVG Generator-->
<defs id="genericDefs"/>
<g>
<defs id="defs1">
<clipPath clipPathUnits="userSpaceOnUse" id="clipPath1">
<path d="M31 9 L1112 9 L1112 505 L31 505 L31 9 Z"/>
</clipPath>
<clipPath clipPathUnits="userSpaceOnUse" id="clipPath2">
<path d="M-1 -1 L1291 -1 L1291 531 L-1 531 L-1 -1 Z"/>
</clipPath>
<clipPath clipPathUnits="userSpaceOnUse" id="clipPath3">
<path d="M1147 -1 L1287 -1 L1287 102 L1147 102 L1147 -1 Z"/>
</clipPath>
<clipPath clipPathUnits="userSpaceOnUse" id="clipPath4">
<path d="M31 503 L1112 503 L1112 531 L31 531 L31 503 Z"/>
</clipPath>
</defs>
<g fill="white" text-rendering="geometricPrecision" font-family="'Segoe UI'" stroke-linejoin="round" stroke="white" stroke-width="0" stroke-miterlimit="0">
<rect x="32" y="10" clip-path="url(#clipPath1)" width="1079" height="494" stroke="none"/>
</g>
<g stroke-linecap="butt" fill="rgb(204,204,204)" text-rendering="geometricPrecision" font-family="'Segoe UI'" stroke-dasharray="3,3" stroke="rgb(204,204,204)">
<line clip-path="url(#clipPath1)" fill="none" x1="32" x2="1111" y1="504" y2="504"/>
<line clip-path="url(#clipPath1)" fill="none" x1="32" x2="1111" y1="414" y2="414"/>
<line clip-path="url(#clipPath1)" fill="none" x1="32" x2="1111" y1="324" y2="324"/>
<line clip-path="url(#clipPath1)" fill="none" x1="32" x2="1111" y1="234" y2="234"/>
<line clip-path="url(#clipPath1)" fill="none" x1="32" x2="1111" y1="144" y2="144"/>
<line clip-path="url(#clipPath1)" fill="none" x1="32" x2="1111" y1="54" y2="54"/>
<rect x="1092" y="450" clip-path="url(#clipPath1)" fill="green" width="9" height="53" stroke="none"/>
<rect x="1092" y="450" clip-path="url(#clipPath1)" fill="none" width="9" stroke-dasharray="none" height="53"/>
<rect x="1077" y="221" clip-path="url(#clipPath1)" fill="rgb(255,165,0)" width="9" stroke-dasharray="none" height="282" stroke="none"/>
<rect x="1077" y="221" clip-path="url(#clipPath1)" fill="none" width="9" stroke-dasharray="none" height="282"/>
<rect x="1063" y="54" clip-path="url(#clipPath1)" fill="rgb(0,100,0)" width="9" stroke-dasharray="none" height="449" stroke="none"/>
<rect x="1063" y="54" clip-path="url(#clipPath1)" fill="none" width="9" stroke-dasharray="none" height="449"/>
<rect x="1049" y="473" clip-path="url(#clipPath1)" fill="rgb(238,0,0)" width="9" stroke-dasharray="none" height="30" stroke="none"/>
<rect x="1049" y="473" clip-path="url(#clipPath1)" fill="none" width="9" stroke-dasharray="none" height="30"/>
<rect x="1035" y="104" clip-path="url(#clipPath1)" fill="rgb(0,0,139)" width="9" stroke-dasharray="none" height="399" stroke="none"/>
<rect x="1035" y="104" clip-path="url(#clipPath1)" fill="none" width="9" stroke-dasharray="none" height="399"/>
<rect x="1009" y="462" clip-path="url(#clipPath1)" fill="green" width="9" stroke-dasharray="none" height="41" stroke="none"/>
<rect x="1009" y="462" clip-path="url(#clipPath1)" fill="none" width="9" stroke-dasharray="none" height="41"/>
<rect x="995" y="162" clip-path="url(#clipPath1)" fill="rgb(255,165,0)" width="9" stroke-dasharray="none" height="341" stroke="none"/>
<rect x="995" y="162" clip-path="url(#clipPath1)" fill="none" width="9" stroke-dasharray="none" height="341"/>
<rect x="980" y="54" clip-path="url(#clipPath1)" fill="rgb(0,100,0)" width="9" stroke-dasharray="none" height="449" stroke="none"/>
<rect x="980" y="54" clip-path="url(#clipPath1)" fill="none" width="9" stroke-dasharray="none" height="449"/>
<rect x="966" y="479" clip-path="url(#clipPath1)" fill="rgb(238,0,0)" width="9" stroke-dasharray="none" height="24" stroke="none"/>
<rect x="966" y="479" clip-path="url(#clipPath1)" fill="none" width="9" stroke-dasharray="none" height="24"/>
<rect x="952" y="76" clip-path="url(#clipPath1)" fill="rgb(0,0,139)" width="9" stroke-dasharray="none" height="427" stroke="none"/>
<rect x="952" y="76" clip-path="url(#clipPath1)" fill="none" width="9" stroke-dasharray="none" height="427"/>
<rect x="926" y="352" clip-path="url(#clipPath1)" fill="green" width="9" stroke-dasharray="none" height="151" stroke="none"/>
<rect x="926" y="352" clip-path="url(#clipPath1)" fill="none" width="9" stroke-dasharray="none" height="151"/>
<rect x="912" y="400" clip-path="url(#clipPath1)" fill="rgb(255,165,0)" width="9" stroke-dasharray="none" height="103" stroke="none"/>
<rect x="912" y="400" clip-path="url(#clipPath1)" fill="none" width="9" stroke-dasharray="none" height="103"/>
<rect x="898" y="54" clip-path="url(#clipPath1)" fill="rgb(0,100,0)" width="9" stroke-dasharray="none" height="449" stroke="none"/>
<rect x="898" y="54" clip-path="url(#clipPath1)" fill="none" width="9" stroke-dasharray="none" height="449"/>
<rect x="883" y="416" clip-path="url(#clipPath1)" fill="rgb(238,0,0)" width="9" stroke-dasharray="none" height="87" stroke="none"/>
<rect x="883" y="416" clip-path="url(#clipPath1)" fill="none" width="9" stroke-dasharray="none" height="87"/>
<rect x="869" y="155" clip-path="url(#clipPath1)" fill="rgb(0,0,139)" width="9" stroke-dasharray="none" height="348" stroke="none"/>
<rect x="869" y="155" clip-path="url(#clipPath1)" fill="none" width="9" stroke-dasharray="none" height="348"/>
<rect x="843" y="492" clip-path="url(#clipPath1)" fill="green" width="9" stroke-dasharray="none" height="11" stroke="none"/>
<rect x="843" y="492" clip-path="url(#clipPath1)" fill="none" width="9" stroke-dasharray="none" height="11"/>
<rect x="829" y="95" clip-path="url(#clipPath1)" fill="rgb(255,165,0)" width="9" stroke-dasharray="none" height="408" stroke="none"/>
<rect x="829" y="95" clip-path="url(#clipPath1)" fill="none" width="9" stroke-dasharray="none" height="408"/>
<rect x="815" y="54" clip-path="url(#clipPath1)" fill="rgb(0,100,0)" width="9" stroke-dasharray="none" height="449" stroke="none"/>
<rect x="815" y="54" clip-path="url(#clipPath1)" fill="none" width="9" stroke-dasharray="none" height="449"/>
<rect x="801" y="497" clip-path="url(#clipPath1)" fill="rgb(238,0,0)" width="9" stroke-dasharray="none" height="6" stroke="none"/>
<rect x="801" y="497" clip-path="url(#clipPath1)" fill="none" width="9" stroke-dasharray="none" height="6"/>
<rect x="786" y="69" clip-path="url(#clipPath1)" fill="rgb(0,0,139)" width="9" stroke-dasharray="none" height="434" stroke="none"/>
<rect x="786" y="69" clip-path="url(#clipPath1)" fill="none" width="9" stroke-dasharray="none" height="434"/>
<rect x="760" y="483" clip-path="url(#clipPath1)" fill="green" width="9" stroke-dasharray="none" height="20" stroke="none"/>
<rect x="760" y="483" clip-path="url(#clipPath1)" fill="none" width="9" stroke-dasharray="none" height="20"/>
<rect x="746" y="122" clip-path="url(#clipPath1)" fill="rgb(255,165,0)" width="9" stroke-dasharray="none" height="381" stroke="none"/>
<rect x="746" y="122" clip-path="url(#clipPath1)" fill="none" width="9" stroke-dasharray="none" height="381"/>
<rect x="732" y="54" clip-path="url(#clipPath1)" fill="rgb(0,100,0)" width="9" stroke-dasharray="none" height="449" stroke="none"/>
<rect x="732" y="54" clip-path="url(#clipPath1)" fill="none" width="9" stroke-dasharray="none" height="449"/>
<rect x="718" y="491" clip-path="url(#clipPath1)" fill="rgb(238,0,0)" width="9" stroke-dasharray="none" height="12" stroke="none"/>
<rect x="718" y="491" clip-path="url(#clipPath1)" fill="none" width="9" stroke-dasharray="none" height="12"/>
<rect x="704" y="64" clip-path="url(#clipPath1)" fill="rgb(0,0,139)" width="9" stroke-dasharray="none" height="439" stroke="none"/>
<rect x="704" y="64" clip-path="url(#clipPath1)" fill="none" width="9" stroke-dasharray="none" height="439"/>
<rect x="677" y="447" clip-path="url(#clipPath1)" fill="green" width="9" stroke-dasharray="none" height="56" stroke="none"/>
<rect x="677" y="447" clip-path="url(#clipPath1)" fill="none" width="9" stroke-dasharray="none" height="56"/>
<rect x="663" y="225" clip-path="url(#clipPath1)" fill="rgb(255,165,0)" width="9" stroke-dasharray="none" height="278" stroke="none"/>
<rect x="663" y="225" clip-path="url(#clipPath1)" fill="none" width="9" stroke-dasharray="none" height="278"/>
<rect x="649" y="54" clip-path="url(#clipPath1)" fill="rgb(0,100,0)" width="9" stroke-dasharray="none" height="449" stroke="none"/>
<rect x="649" y="54" clip-path="url(#clipPath1)" fill="none" width="9" stroke-dasharray="none" height="449"/>
<rect x="635" y="471" clip-path="url(#clipPath1)" fill="rgb(238,0,0)" width="9" stroke-dasharray="none" height="32" stroke="none"/>
<rect x="635" y="471" clip-path="url(#clipPath1)" fill="none" width="9" stroke-dasharray="none" height="32"/>
<rect x="621" y="84" clip-path="url(#clipPath1)" fill="rgb(0,0,139)" width="9" stroke-dasharray="none" height="419" stroke="none"/>
<rect x="621" y="84" clip-path="url(#clipPath1)" fill="none" width="9" stroke-dasharray="none" height="419"/>
<rect x="595" y="474" clip-path="url(#clipPath1)" fill="green" width="9" stroke-dasharray="none" height="29" stroke="none"/>
<rect x="595" y="474" clip-path="url(#clipPath1)" fill="none" width="9" stroke-dasharray="none" height="29"/>
<rect x="580" y="149" clip-path="url(#clipPath1)" fill="rgb(255,165,0)" width="9" stroke-dasharray="none" height="354" stroke="none"/>
<rect x="580" y="149" clip-path="url(#clipPath1)" fill="none" width="9" stroke-dasharray="none" height="354"/>
<rect x="566" y="54" clip-path="url(#clipPath1)" fill="rgb(0,100,0)" width="9" stroke-dasharray="none" height="449" stroke="none"/>
<rect x="566" y="54" clip-path="url(#clipPath1)" fill="none" width="9" stroke-dasharray="none" height="449"/>
<rect x="552" y="487" clip-path="url(#clipPath1)" fill="rgb(238,0,0)" width="9" stroke-dasharray="none" height="16" stroke="none"/>
<rect x="552" y="487" clip-path="url(#clipPath1)" fill="none" width="9" stroke-dasharray="none" height="16"/>
<rect x="538" y="69" clip-path="url(#clipPath1)" fill="rgb(0,0,139)" width="9" stroke-dasharray="none" height="434" stroke="none"/>
<rect x="538" y="69" clip-path="url(#clipPath1)" fill="none" width="9" stroke-dasharray="none" height="434"/>
<rect x="512" y="484" clip-path="url(#clipPath1)" fill="green" width="9" stroke-dasharray="none" height="19" stroke="none"/>
<rect x="512" y="484" clip-path="url(#clipPath1)" fill="none" width="9" stroke-dasharray="none" height="19"/>
<rect x="498" y="108" clip-path="url(#clipPath1)" fill="rgb(255,165,0)" width="9" stroke-dasharray="none" height="395" stroke="none"/>
<rect x="498" y="108" clip-path="url(#clipPath1)" fill="none" width="9" stroke-dasharray="none" height="395"/>
<rect x="483" y="54" clip-path="url(#clipPath1)" fill="rgb(0,100,0)" width="9" stroke-dasharray="none" height="449" stroke="none"/>
<rect x="483" y="54" clip-path="url(#clipPath1)" fill="none" width="9" stroke-dasharray="none" height="449"/>
<rect x="469" y="492" clip-path="url(#clipPath1)" fill="rgb(238,0,0)" width="9" stroke-dasharray="none" height="11" stroke="none"/>
<rect x="469" y="492" clip-path="url(#clipPath1)" fill="none" width="9" stroke-dasharray="none" height="11"/>
<rect x="455" y="70" clip-path="url(#clipPath1)" fill="rgb(0,0,139)" width="9" stroke-dasharray="none" height="433" stroke="none"/>
<rect x="455" y="70" clip-path="url(#clipPath1)" fill="none" width="9" stroke-dasharray="none" height="433"/>
<rect x="429" y="454" clip-path="url(#clipPath1)" fill="green" width="9" stroke-dasharray="none" height="49" stroke="none"/>
<rect x="429" y="454" clip-path="url(#clipPath1)" fill="none" width="9" stroke-dasharray="none" height="49"/>
<rect x="415" y="216" clip-path="url(#clipPath1)" fill="rgb(255,165,0)" width="9" stroke-dasharray="none" height="287" stroke="none"/>
<rect x="415" y="216" clip-path="url(#clipPath1)" fill="none" width="9" stroke-dasharray="none" height="287"/>
<rect x="401" y="54" clip-path="url(#clipPath1)" fill="rgb(0,100,0)" width="9" stroke-dasharray="none" height="449" stroke="none"/>
<rect x="401" y="54" clip-path="url(#clipPath1)" fill="none" width="9" stroke-dasharray="none" height="449"/>
<rect x="386" y="475" clip-path="url(#clipPath1)" fill="rgb(238,0,0)" width="9" stroke-dasharray="none" height="28" stroke="none"/>
<rect x="386" y="475" clip-path="url(#clipPath1)" fill="none" width="9" stroke-dasharray="none" height="28"/>
<rect x="372" y="76" clip-path="url(#clipPath1)" fill="rgb(0,0,139)" width="9" stroke-dasharray="none" height="427" stroke="none"/>
<rect x="372" y="76" clip-path="url(#clipPath1)" fill="none" width="9" stroke-dasharray="none" height="427"/>
<rect x="346" y="461" clip-path="url(#clipPath1)" fill="green" width="9" stroke-dasharray="none" height="42" stroke="none"/>
<rect x="346" y="461" clip-path="url(#clipPath1)" fill="none" width="9" stroke-dasharray="none" height="42"/>
<rect x="332" y="158" clip-path="url(#clipPath1)" fill="rgb(255,165,0)" width="9" stroke-dasharray="none" height="345" stroke="none"/>
<rect x="332" y="158" clip-path="url(#clipPath1)" fill="none" width="9" stroke-dasharray="none" height="345"/>
<rect x="318" y="54" clip-path="url(#clipPath1)" fill="rgb(0,100,0)" width="9" stroke-dasharray="none" height="449" stroke="none"/>
<rect x="318" y="54" clip-path="url(#clipPath1)" fill="none" width="9" stroke-dasharray="none" height="449"/>
<rect x="304" y="479" clip-path="url(#clipPath1)" fill="rgb(238,0,0)" width="9" stroke-dasharray="none" height="24" stroke="none"/>
<rect x="304" y="479" clip-path="url(#clipPath1)" fill="none" width="9" stroke-dasharray="none" height="24"/>
<rect x="289" y="77" clip-path="url(#clipPath1)" fill="rgb(0,0,139)" width="9" stroke-dasharray="none" height="426" stroke="none"/>
<rect x="289" y="77" clip-path="url(#clipPath1)" fill="none" width="9" stroke-dasharray="none" height="426"/>
<rect x="263" y="458" clip-path="url(#clipPath1)" fill="green" width="9" stroke-dasharray="none" height="45" stroke="none"/>
<rect x="263" y="458" clip-path="url(#clipPath1)" fill="none" width="9" stroke-dasharray="none" height="45"/>
<rect x="249" y="207" clip-path="url(#clipPath1)" fill="rgb(255,165,0)" width="9" stroke-dasharray="none" height="296" stroke="none"/>
<rect x="249" y="207" clip-path="url(#clipPath1)" fill="none" width="9" stroke-dasharray="none" height="296"/>
<rect x="235" y="54" clip-path="url(#clipPath1)" fill="rgb(0,100,0)" width="9" stroke-dasharray="none" height="449" stroke="none"/>
<rect x="235" y="54" clip-path="url(#clipPath1)" fill="none" width="9" stroke-dasharray="none" height="449"/>
<rect x="221" y="477" clip-path="url(#clipPath1)" fill="rgb(238,0,0)" width="9" stroke-dasharray="none" height="26" stroke="none"/>
<rect x="221" y="477" clip-path="url(#clipPath1)" fill="none" width="9" stroke-dasharray="none" height="26"/>
<rect x="207" y="78" clip-path="url(#clipPath1)" fill="rgb(0,0,139)" width="9" stroke-dasharray="none" height="425" stroke="none"/>
<rect x="207" y="78" clip-path="url(#clipPath1)" fill="none" width="9" stroke-dasharray="none" height="425"/>
<rect x="181" y="483" clip-path="url(#clipPath1)" fill="green" width="9" stroke-dasharray="none" height="20" stroke="none"/>
<rect x="181" y="483" clip-path="url(#clipPath1)" fill="none" width="9" stroke-dasharray="none" height="20"/>
<rect x="166" y="122" clip-path="url(#clipPath1)" fill="rgb(255,165,0)" width="9" stroke-dasharray="none" height="381" stroke="none"/>
<rect x="166" y="122" clip-path="url(#clipPath1)" fill="none" width="9" stroke-dasharray="none" height="381"/>
<rect x="152" y="54" clip-path="url(#clipPath1)" fill="rgb(0,100,0)" width="9" stroke-dasharray="none" height="449" stroke="none"/>
<rect x="152" y="54" clip-path="url(#clipPath1)" fill="none" width="9" stroke-dasharray="none" height="449"/>
<rect x="138" y="492" clip-path="url(#clipPath1)" fill="rgb(238,0,0)" width="9" stroke-dasharray="none" height="11" stroke="none"/>
<rect x="138" y="492" clip-path="url(#clipPath1)" fill="none" width="9" stroke-dasharray="none" height="11"/>
<rect x="124" y="68" clip-path="url(#clipPath1)" fill="rgb(0,0,139)" width="9" stroke-dasharray="none" height="435" stroke="none"/>
<rect x="124" y="68" clip-path="url(#clipPath1)" fill="none" width="9" stroke-dasharray="none" height="435"/>
<rect x="98" y="455" clip-path="url(#clipPath1)" fill="green" width="9" stroke-dasharray="none" height="48" stroke="none"/>
<rect x="98" y="455" clip-path="url(#clipPath1)" fill="none" width="9" stroke-dasharray="none" height="48"/>
<rect x="84" y="207" clip-path="url(#clipPath1)" fill="rgb(255,165,0)" width="9" stroke-dasharray="none" height="296" stroke="none"/>
<rect x="84" y="207" clip-path="url(#clipPath1)" fill="none" width="9" stroke-dasharray="none" height="296"/>
<rect x="69" y="54" clip-path="url(#clipPath1)" fill="rgb(0,100,0)" width="9" stroke-dasharray="none" height="449" stroke="none"/>
<rect x="69" y="54" clip-path="url(#clipPath1)" fill="none" width="9" stroke-dasharray="none" height="449"/>
<rect x="55" y="475" clip-path="url(#clipPath1)" fill="rgb(238,0,0)" width="9" stroke-dasharray="none" height="28" stroke="none"/>
<rect x="55" y="475" clip-path="url(#clipPath1)" fill="none" width="9" stroke-dasharray="none" height="28"/>
<rect x="41" y="76" clip-path="url(#clipPath1)" fill="rgb(0,0,139)" width="9" stroke-dasharray="none" height="427" stroke="none"/>
<rect x="41" y="76" clip-path="url(#clipPath1)" fill="none" width="9" stroke-dasharray="none" height="427"/>
<rect x="32" y="10" clip-path="url(#clipPath2)" fill="none" width="1079" stroke-dasharray="none" height="494" stroke="black"/>
<line clip-path="url(#clipPath2)" fill="none" x1="33" x2="1110" y1="504" y2="504" stroke-dasharray="none"/>
<rect x="1148" y="0" clip-path="url(#clipPath3)" fill="white" width="137" stroke-dasharray="none" height="100" stroke="none"/>
<rect x="1158" y="9" clip-path="url(#clipPath3)" fill="rgb(0,0,139)" width="7" stroke-dasharray="none" height="7" stroke="none"/>
</g>
<g text-rendering="geometricPrecision" font-size="11" font-family="'Arial'" stroke-linecap="butt">
<text xml:space="preserve" x="1170" y="16" clip-path="url(#clipPath3)" stroke="none">Total_coverage</text>
<rect x="1158" y="28" clip-path="url(#clipPath3)" fill="rgb(238,0,0)" width="7" height="7" stroke="none"/>
<text xml:space="preserve" x="1170" y="35" clip-path="url(#clipPath3)" stroke="none">Total_coverage:confint</text>
<rect x="1158" y="47" clip-path="url(#clipPath3)" fill="rgb(0,100,0)" width="7" height="7" stroke="none"/>
<text xml:space="preserve" x="1170" y="54" clip-path="url(#clipPath3)" stroke="none">Total_coverage:max</text>
<rect x="1158" y="66" clip-path="url(#clipPath3)" fill="rgb(255,165,0)" width="7" height="7" stroke="none"/>
<text xml:space="preserve" x="1170" y="73" clip-path="url(#clipPath3)" stroke="none">Total_coverage:min</text>
<rect x="1158" y="85" clip-path="url(#clipPath3)" fill="green" width="7" height="7" stroke="none"/>
<text xml:space="preserve" x="1170" y="92" clip-path="url(#clipPath3)" stroke="none">Total_coverage:stddev</text>
<line clip-path="url(#clipPath2)" fill="none" x1="30" x2="30" y1="10" y2="504"/>
<line clip-path="url(#clipPath2)" fill="none" x1="1113" x2="1113" y1="10" y2="504"/>
<line clip-path="url(#clipPath2)" fill="none" x1="26" x2="30" y1="504" y2="504"/>
<line clip-path="url(#clipPath2)" fill="none" x1="1117" x2="1113" y1="504" y2="504"/>
<text xml:space="preserve" x="20" y="508" clip-path="url(#clipPath2)" stroke="none">0</text>
<text xml:space="preserve" x="1120" y="508" clip-path="url(#clipPath2)" stroke="none">0</text>
<line clip-path="url(#clipPath2)" fill="none" x1="28" x2="30" y1="459" y2="459"/>
<line clip-path="url(#clipPath2)" fill="none" x1="1115" x2="1113" y1="459" y2="459"/>
<line clip-path="url(#clipPath2)" fill="none" x1="26" x2="30" y1="414" y2="414"/>
<line clip-path="url(#clipPath2)" fill="none" x1="1117" x2="1113" y1="414" y2="414"/>
<text xml:space="preserve" x="15" y="418" clip-path="url(#clipPath2)" stroke="none">20</text>
<text xml:space="preserve" x="1120" y="418" clip-path="url(#clipPath2)" stroke="none">20</text>
<line clip-path="url(#clipPath2)" fill="none" x1="28" x2="30" y1="369" y2="369"/>
<line clip-path="url(#clipPath2)" fill="none" x1="1115" x2="1113" y1="369" y2="369"/>
<line clip-path="url(#clipPath2)" fill="none" x1="26" x2="30" y1="324" y2="324"/>
<line clip-path="url(#clipPath2)" fill="none" x1="1117" x2="1113" y1="324" y2="324"/>
<text xml:space="preserve" x="15" y="328" clip-path="url(#clipPath2)" stroke="none">40</text>
<text xml:space="preserve" x="1120" y="328" clip-path="url(#clipPath2)" stroke="none">40</text>
<line clip-path="url(#clipPath2)" fill="none" x1="28" x2="30" y1="279" y2="279"/>
<line clip-path="url(#clipPath2)" fill="none" x1="1115" x2="1113" y1="279" y2="279"/>
<line clip-path="url(#clipPath2)" fill="none" x1="26" x2="30" y1="234" y2="234"/>
<line clip-path="url(#clipPath2)" fill="none" x1="1117" x2="1113" y1="234" y2="234"/>
<text xml:space="preserve" x="15" y="238" clip-path="url(#clipPath2)" stroke="none">60</text>
<text xml:space="preserve" x="1120" y="238" clip-path="url(#clipPath2)" stroke="none">60</text>
<line clip-path="url(#clipPath2)" fill="none" x1="28" x2="30" y1="189" y2="189"/>
<line clip-path="url(#clipPath2)" fill="none" x1="1115" x2="1113" y1="189" y2="189"/>
<line clip-path="url(#clipPath2)" fill="none" x1="26" x2="30" y1="144" y2="144"/>
<line clip-path="url(#clipPath2)" fill="none" x1="1117" x2="1113" y1="144" y2="144"/>
<text xml:space="preserve" x="15" y="148" clip-path="url(#clipPath2)" stroke="none">80</text>
<text xml:space="preserve" x="1120" y="148" clip-path="url(#clipPath2)" stroke="none">80</text>
<line clip-path="url(#clipPath2)" fill="none" x1="28" x2="30" y1="99" y2="99"/>
<line clip-path="url(#clipPath2)" fill="none" x1="1115" x2="1113" y1="99" y2="99"/>
<line clip-path="url(#clipPath2)" fill="none" x1="26" x2="30" y1="54" y2="54"/>
<line clip-path="url(#clipPath2)" fill="none" x1="1117" x2="1113" y1="54" y2="54"/>
<text xml:space="preserve" x="10" y="58" clip-path="url(#clipPath2)" stroke="none">100</text>
<text xml:space="preserve" x="1120" y="58" clip-path="url(#clipPath2)" stroke="none">100</text>
<line clip-path="url(#clipPath2)" fill="none" x1="28" x2="30" y1="10" y2="10"/>
<line clip-path="url(#clipPath2)" fill="none" x1="1115" x2="1113" y1="10" y2="10"/>
<line clip-path="url(#clipPath4)" fill="none" x1="41" x2="107" y1="508" y2="508"/>
<line clip-path="url(#clipPath4)" fill="none" x1="124" x2="190" y1="508" y2="508"/>
<line clip-path="url(#clipPath4)" fill="none" x1="207" x2="272" y1="508" y2="508"/>
<line clip-path="url(#clipPath4)" fill="none" x1="289" x2="355" y1="508" y2="508"/>
<line clip-path="url(#clipPath4)" fill="none" x1="372" x2="438" y1="508" y2="508"/>
<line clip-path="url(#clipPath4)" fill="none" x1="455" x2="521" y1="508" y2="508"/>
<line clip-path="url(#clipPath4)" fill="none" x1="538" x2="604" y1="508" y2="508"/>
<line clip-path="url(#clipPath4)" fill="none" x1="621" x2="686" y1="508" y2="508"/>
<line clip-path="url(#clipPath4)" fill="none" x1="704" x2="769" y1="508" y2="508"/>
<line clip-path="url(#clipPath4)" fill="none" x1="786" x2="852" y1="508" y2="508"/>
<line clip-path="url(#clipPath4)" fill="none" x1="869" x2="935" y1="508" y2="508"/>
<line clip-path="url(#clipPath4)" fill="none" x1="952" x2="1018" y1="508" y2="508"/>
<line clip-path="url(#clipPath4)" fill="none" x1="1035" x2="1101" y1="508" y2="508"/>
<text xml:space="preserve" x="41" y="520" clip-path="url(#clipPath4)" stroke="none">$Traffic=20</text>
<text xml:space="preserve" x="124" y="520" clip-path="url(#clipPath4)" stroke="none">$Traffic=40</text>
<text xml:space="preserve" x="207" y="520" clip-path="url(#clipPath4)" stroke="none">$Traffic=60</text>
<text xml:space="preserve" x="289" y="520" clip-path="url(#clipPath4)" stroke="none">$Traffic=80</text>
<text xml:space="preserve" x="372" y="520" clip-path="url(#clipPath4)" stroke="none">$Traffic=100</text>
<text xml:space="preserve" x="455" y="520" clip-path="url(#clipPath4)" stroke="none">$Traffic=150</text>
<text xml:space="preserve" x="538" y="520" clip-path="url(#clipPath4)" stroke="none">$Traffic=200</text>
<text xml:space="preserve" x="621" y="520" clip-path="url(#clipPath4)" stroke="none">$Traffic=250</text>
<text xml:space="preserve" x="704" y="520" clip-path="url(#clipPath4)" stroke="none">$Traffic=300</text>
<text xml:space="preserve" x="786" y="520" clip-path="url(#clipPath4)" stroke="none">$Traffic=350</text>
<text xml:space="preserve" x="869" y="520" clip-path="url(#clipPath4)" stroke="none">$Traffic=400</text>
<text xml:space="preserve" x="952" y="520" clip-path="url(#clipPath4)" stroke="none">$Traffic=450</text>
<text xml:space="preserve" x="1035" y="520" clip-path="url(#clipPath4)" stroke="none">$Traffic=500</text>
</g>
</g>
</svg>
